<svg width="1637" height="1999" viewBox="0 0 1637 1999" fill="none" xmlns="http://www.w3.org/2000/svg">
<path d="M1047.7 571.497C2164.39 693.381 1107.91 1743.2 863.146 1806.53C618.381 1869.85 557.38 1801.76 384.495 1523.03C264.745 1209.32 163.374 886.852 304.386 667.478C445.399 448.105 686.172 330.718 1047.7 571.497Z" fill="#F7B1A9"/>
<path d="M778.979 1117.23C1228.14 1074.69 874.988 407.62 567.572 867.301C260.156 1326.98 411.501 964.689 321.415 867.353M778.979 1117.23C665.374 983.084 566.413 1007.8 567.527 1074.83C568.642 1141.87 658.981 1171.24 778.979 1117.23ZM778.979 1117.23C778.979 1117.23 458.282 1972.71 863.028 1641.85C1267.77 1311 1575.84 319.899 704.588 515.814C373.602 410.556 194.637 496.847 141.66 718.297C88.6826 939.747 229.554 1354.86 396.032 1585.75" stroke="#F06A5C" stroke-width="44" stroke-linecap="round"/>
<g filter="url(#filter0_i_53_45)">
<path d="M886.709 399.08C903.852 320.168 908.09 274.514 865.479 180.981C938.949 204.465 968.207 226.613 995.632 282.506C1032.68 229.78 1056.9 200.906 1146.06 161.052C1203.01 248.833 1201.3 282.907 1190.28 340.166C1271.78 310.88 1312.67 308.365 1375.78 332.143C1307.09 368.435 1270 400.804 1207.62 494.141C1087.95 444.104 1018.11 422.136 886.709 399.08Z" fill="#5E9900"/>
</g>
<path d="M875.442 125.45C877.079 136.23 874.246 150.538 868.209 151.455C862.172 152.372 855.218 139.55 853.581 128.77C851.944 117.991 854.777 103.683 860.814 102.766C866.851 101.849 873.805 114.671 875.442 125.45Z" fill="black"/>
<path d="M1393.42 287.582C1386.98 296.384 1374.89 304.541 1369.96 300.938C1365.03 297.335 1369.13 283.337 1375.57 274.534C1382 265.732 1394.09 257.575 1399.02 261.178C1403.95 264.781 1399.85 278.779 1393.42 287.582Z" fill="black"/>
<path d="M1173.35 112.335C1170.25 122.789 1161.61 134.539 1155.75 132.805C1149.9 131.071 1149.05 116.509 1152.15 106.055C1155.24 95.6011 1163.89 83.8512 1169.74 85.5854C1175.6 87.3196 1176.45 101.881 1173.35 112.335Z" fill="black"/>
<defs>
<filter id="filter0_i_53_45" x="865.479" y="161.053" width="520.398" height="343.188" filterUnits="userSpaceOnUse" color-interpolation-filters="sRGB">
<feFlood flood-opacity="0" result="BackgroundImageFix"/>
<feBlend mode="normal" in="SourceGraphic" in2="BackgroundImageFix" result="shape"/>
<feColorMatrix in="SourceAlpha" type="matrix" values="0 0 0 0 0 0 0 0 0 0 0 0 0 0 0 0 0 0 127 0" result="hardAlpha"/>
<feOffset dx="19" dy="18"/>
<feGaussianBlur stdDeviation="5.05"/>
<feComposite in2="hardAlpha" operator="arithmetic" k2="-1" k3="1"/>
<feColorMatrix type="matrix" values="0 0 0 0 0.309804 0 0 0 0 0.501961 0 0 0 0 0 0 0 0 1 0"/>
<feBlend mode="normal" in2="shape" result="effect1_innerShadow_53_45"/>
</filter>
</defs>
</svg>
